<svg width="24" height="24" viewBox="0 0 24 24" fill="none" xmlns="http://www.w3.org/2000/svg">
<path d="M18.5486 12.7631C18.5604 11.8432 18.8048 10.9412 19.2589 10.1411C19.713 9.34105 20.3621 8.66882 21.1458 8.18699C20.6479 7.47594 19.9911 6.89078 19.2275 6.47797C18.4639 6.06517 17.6146 5.8361 16.747 5.80895C14.8963 5.61468 13.1021 6.91641 12.1589 6.91641C11.1976 6.91641 9.74553 5.82824 8.18189 5.86041C7.1705 5.89308 6.18481 6.18719 5.32088 6.71407C4.45694 7.24096 3.74422 7.98265 3.25215 8.86688C1.12068 12.5573 2.71057 17.9809 4.75238 20.964C5.77394 22.4247 6.96785 24.0563 8.53007 23.9985C10.0588 23.9351 10.6297 23.0237 12.475 23.0237C14.3032 23.0237 14.8389 23.9985 16.4328 23.9617C18.0732 23.9351 19.1067 22.4945 20.0924 21.0199C20.8264 19.9791 21.3912 18.8288 21.7659 17.6116C20.8129 17.2085 19.9996 16.5338 19.4275 15.6716C18.8553 14.8094 18.5497 13.7979 18.5486 12.7631Z" fill="#363639"/>
<path d="M15.538 3.84713C16.4324 2.77342 16.873 1.39335 16.7663 0C15.3999 0.143519 14.1376 0.796596 13.2311 1.82911C12.7879 2.33351 12.4485 2.92033 12.2322 3.55601C12.0159 4.19168 11.927 4.86375 11.9706 5.5338C12.6541 5.54084 13.3303 5.3927 13.9482 5.10054C14.5661 4.80838 15.1097 4.37982 15.538 3.84713V3.84713Z" fill="#363639"/>
</svg>
