<svg width="24" height="24" viewBox="0 0 24 24" fill="none" xmlns="http://www.w3.org/2000/svg">
<path d="M12.0009 2C9.28508 2 8.94424 2.01188 7.87756 2.06042C6.81297 2.10917 6.08629 2.27772 5.45045 2.52502C4.79274 2.78045 4.23482 3.12213 3.67898 3.67819C3.12272 4.23405 2.78105 4.79199 2.5248 5.44952C2.27688 6.08558 2.10813 6.81249 2.06021 7.8767C2.0125 8.94341 2 9.28446 2 12.0004C2 14.7164 2.01208 15.0562 2.06042 16.1229C2.10938 17.1875 2.27792 17.9142 2.52501 18.55C2.78063 19.2078 3.1223 19.7657 3.67835 20.3216C4.23398 20.8779 4.7919 21.2204 5.4492 21.4758C6.08546 21.7231 6.81234 21.8916 7.87673 21.9404C8.94341 21.9889 9.28403 22.0008 11.9997 22.0008C14.7158 22.0008 15.0556 21.9889 16.1222 21.9404C17.1868 21.8916 17.9143 21.7231 18.5506 21.4758C19.2081 21.2204 19.7652 20.8779 20.3208 20.3216C20.8771 19.7657 21.2187 19.2078 21.475 18.5503C21.7208 17.9142 21.8896 17.1873 21.9396 16.1231C21.9875 15.0564 22 14.7164 22 12.0004C22 9.28446 21.9875 8.94362 21.9396 7.87691C21.8896 6.81228 21.7208 6.08558 21.475 5.44972C21.2187 4.79199 20.8771 4.23405 20.3208 3.67819C19.7646 3.12192 19.2083 2.78024 18.55 2.52502C17.9125 2.27772 17.1854 2.10917 16.1208 2.06042C15.0541 2.01188 14.7145 2 11.9978 2H12.0009ZM11.1038 3.80216C11.3701 3.80174 11.6672 3.80216 12.0009 3.80216C14.671 3.80216 14.9874 3.81174 16.0418 3.85966C17.0168 3.90424 17.546 4.06717 17.8985 4.20405C18.3652 4.38531 18.6979 4.60198 19.0477 4.95199C19.3977 5.30201 19.6143 5.63536 19.796 6.10204C19.9329 6.45414 20.096 6.98333 20.1404 7.95837C20.1883 9.01258 20.1987 9.32926 20.1987 11.9981C20.1987 14.667 20.1883 14.9837 20.1404 16.0379C20.0958 17.0129 19.9329 17.5421 19.796 17.8942C19.6148 18.3609 19.3977 18.6932 19.0477 19.043C18.6977 19.393 18.3654 19.6097 17.8985 19.7909C17.5464 19.9284 17.0168 20.0909 16.0418 20.1355C14.9876 20.1834 14.671 20.1939 12.0009 20.1939C9.3307 20.1939 9.01424 20.1834 7.96006 20.1355C6.98505 20.0905 6.45588 19.9276 6.10317 19.7907C5.6365 19.6095 5.30316 19.3928 4.95316 19.0428C4.60315 18.6928 4.38648 18.3602 4.20481 17.8934C4.06794 17.5413 3.90481 17.0121 3.86044 16.037C3.81252 14.9828 3.80294 14.6661 3.80294 11.9956C3.80294 9.32509 3.81252 9.01008 3.86044 7.95587C3.90502 6.98083 4.06794 6.45164 4.20481 6.09912C4.38607 5.63244 4.60315 5.29909 4.95316 4.94908C5.30316 4.59906 5.6365 4.38239 6.10317 4.20071C6.45567 4.06321 6.98505 3.9007 7.96006 3.85591C8.88257 3.81424 9.24008 3.80174 11.1038 3.79966V3.80216ZM17.3389 5.46264C16.6764 5.46264 16.1389 5.99954 16.1389 6.66227C16.1389 7.3248 16.6764 7.86232 17.3389 7.86232C18.0014 7.86232 18.5389 7.3248 18.5389 6.66227C18.5389 5.99975 18.0014 5.46264 17.3389 5.46264ZM12.0009 6.86478C9.16487 6.86478 6.86547 9.16425 6.86547 12.0004C6.86547 14.8366 9.16487 17.135 12.0009 17.135C14.837 17.135 17.1356 14.8366 17.1356 12.0004C17.1356 9.16425 14.837 6.86478 12.0009 6.86478ZM12.0009 8.66694C13.8418 8.66694 15.3343 10.1593 15.3343 12.0004C15.3343 13.8413 13.8418 15.3339 12.0009 15.3339C10.1599 15.3339 8.66757 13.8413 8.66757 12.0004C8.66757 10.1593 10.1599 8.66694 12.0009 8.66694Z" fill="#F00075"/>
</svg>
