<svg width="24" height="24" viewBox="0 0 24 24" fill="none" xmlns="http://www.w3.org/2000/svg">
<path fill-rule="evenodd" clip-rule="evenodd" d="M17.1667 2C20.3832 2 23 4.61683 23 7.83333V17.1667C23 20.3832 20.3832 23 17.1667 23H7.83333C4.61683 23 2 20.3832 2 17.1667V7.83333C2 4.61683 4.61683 2 7.83333 2H17.1667ZM17.1667 4.33333H7.83333C5.90367 4.33333 4.33333 5.90367 4.33333 7.83333V17.1667C4.33333 19.0963 5.90367 20.6667 7.83333 20.6667H17.1667C19.0963 20.6667 20.6667 19.0963 20.6667 17.1667V7.83333C20.6667 5.90367 19.0963 4.33333 17.1667 4.33333ZM12.5 6.66667C15.7165 6.66667 18.3333 9.2835 18.3333 12.5C18.3333 15.7165 15.7165 18.3333 12.5 18.3333C9.2835 18.3333 6.66667 15.7165 6.66667 12.5C6.66667 9.2835 9.2835 6.66667 12.5 6.66667ZM12.5 9C10.5703 9 9 10.5703 9 12.5C9 14.4297 10.5703 16 12.5 16C14.4297 16 16 14.4297 16 12.5C16 10.5703 14.4297 9 12.5 9ZM18.3333 5.5C18.9773 5.5 19.5 6.0215 19.5 6.66667C19.5 7.31183 18.9773 7.83333 18.3333 7.83333C17.6893 7.83333 17.1667 7.31183 17.1667 6.66667C17.1667 6.0215 17.6893 5.5 18.3333 5.5Z" fill="#363639"/>
</svg>
