<svg width="24" height="24" viewBox="0 0 24 24" fill="none" xmlns="http://www.w3.org/2000/svg">
<path d="M15.2442 6.16618H8.75467V17.8289H15.2442V6.16618Z" fill="#7A7A7A"/>
<path d="M9.1667 12.0006C9.16582 10.8776 9.4204 9.76908 9.91117 8.75899C10.4019 7.74889 11.116 6.86366 11.9994 6.17029C10.9053 5.31042 9.59133 4.77571 8.20768 4.62729C6.82403 4.47887 5.42654 4.72271 4.17492 5.33096C2.9233 5.9392 1.86805 6.88731 1.12978 8.06692C0.391508 9.24652 0 10.61 0 12.0016C0 13.3932 0.391508 14.7567 1.12978 15.9363C1.86805 17.1159 2.9233 18.064 4.17492 18.6723C5.42654 19.2805 6.82403 19.5244 8.20768 19.376C9.59133 19.2275 10.9053 18.6928 11.9994 17.833C11.1165 17.1388 10.4027 16.2531 9.91196 15.2427C9.42125 14.2324 9.16642 13.1238 9.1667 12.0006Z" fill="#404040"/>
<path d="M23.2913 16.5927V16.3538H23.3881V16.3064H23.1429V16.3538H23.2501V16.5927H23.2913ZM23.7692 16.5927V16.3043H23.693L23.6065 16.5103L23.52 16.3043H23.4561V16.5927H23.5076V16.3764L23.59 16.5639H23.6436L23.726 16.3744V16.5927H23.7692Z" fill="black"/>
<path d="M24 12.0006C23.9996 13.3921 23.6077 14.7554 22.8691 15.9348C22.1306 17.1141 21.0751 18.0619 19.8234 18.6698C18.5717 19.2777 17.1743 19.5212 15.7907 19.3725C14.4072 19.2238 13.0934 18.6889 11.9995 17.8288C12.8825 17.1349 13.5964 16.2494 14.0873 15.2392C14.5782 14.2291 14.8333 13.1206 14.8333 11.9975C14.8333 10.8744 14.5782 9.76594 14.0873 8.75578C13.5964 7.74563 12.8825 6.86016 11.9995 6.16617C13.0938 5.30581 14.4082 4.7708 15.7923 4.62232C17.1764 4.47384 18.5743 4.71788 19.8262 5.32654C21.0781 5.9352 22.1335 6.8839 22.8716 8.06416C23.6097 9.24441 24.0007 10.6086 24 12.0006Z" fill="#B8B8B8"/>
</svg>
