<svg width="24" height="24" viewBox="0 0 24 24" fill="none" xmlns="http://www.w3.org/2000/svg">
<g clip-path="url(#clip0_5_17)">
<path d="M15.245 6.16571H8.75531V17.8279H15.245V6.16571Z" fill="#FF5F00"/>
<path d="M9.1674 11.9968C9.16637 10.8737 9.42089 9.76499 9.91167 8.75474C10.4025 7.74449 11.1166 6.85915 12.0002 6.16572C10.9061 5.30571 9.59203 4.77088 8.20831 4.62236C6.82459 4.47385 5.427 4.71763 4.17528 5.32586C2.92356 5.93409 1.86822 6.88223 1.12988 8.06189C0.391541 9.24155 0 10.6051 0 11.9968C0 13.3885 0.391541 14.7521 1.12988 15.9317C1.86822 17.1114 2.92356 18.0595 4.17528 18.6678C5.427 19.276 6.82459 19.5198 8.20831 19.3713C9.59203 19.2227 10.9061 18.6879 12.0002 17.8279C11.1167 17.1345 10.4025 16.2491 9.91168 15.2389C9.4209 14.2286 9.16638 13.12 9.1674 11.9968Z" fill="#EB001B"/>
<path d="M24 11.9968C24.0001 13.3885 23.6086 14.752 22.8703 15.9317C22.132 17.1114 21.0766 18.0595 19.825 18.6677C18.5733 19.276 17.1757 19.5198 15.792 19.3713C14.4083 19.2227 13.0943 18.6879 12.0002 17.8279C12.8829 17.1338 13.5966 16.2483 14.0873 15.2382C14.578 14.2281 14.833 13.1198 14.833 11.9968C14.833 10.8738 14.578 9.76551 14.0873 8.75543C13.5966 7.74534 12.8829 6.85984 12.0002 6.16572C13.0943 5.3057 14.4083 4.77087 15.792 4.62236C17.1757 4.47385 18.5733 4.71764 19.825 5.32588C21.0766 5.93411 22.132 6.88225 22.8703 8.06191C23.6086 9.24157 24.0001 10.6052 24 11.9968Z" fill="#F79E1B"/>
<path d="M23.2924 16.5928V16.354H23.3886V16.3054H23.1435V16.354H23.2398V16.5928H23.2924ZM23.7684 16.5928V16.3049H23.6932L23.6068 16.5029L23.5203 16.3049H23.4451V16.5928H23.4982V16.3756L23.5793 16.5628H23.6343L23.7154 16.3751V16.5928H23.7684Z" fill="#F79E1B"/>
</g>
<defs>
<clipPath id="clip0_5_17">
<rect width="24" height="24" fill="white"/>
</clipPath>
</defs>
</svg>
