<svg width="24" height="24" viewBox="0 0 24 24" fill="none" xmlns="http://www.w3.org/2000/svg">
<path d="M9.56906 9.68227V8.8036C9.27126 8.76162 8.97096 8.73983 8.67021 8.73839C4.99232 8.73839 2 11.7307 2 15.4104C2.00018 16.4825 2.25898 17.5387 2.75445 18.4894C3.24991 19.4401 3.96741 20.2573 4.84605 20.8716C3.73753 19.6777 3.07718 18.0814 3.07718 16.328C3.07515 14.5913 3.75365 12.9229 4.96722 11.6806C6.18078 10.4383 7.8328 9.7209 9.56906 9.68227Z" fill="#25F4EE"/>
<path d="M9.72653 19.3963C11.3675 19.3963 12.7289 18.0688 12.7887 16.4422L12.7934 1.94136L15.4233 1.91902C15.3674 1.61589 15.3396 1.30825 15.3401 1L11.7162 1L11.7105 15.5232C11.6923 16.0373 11.5439 16.5384 11.2792 16.9795C11.0145 17.4206 10.6421 17.7874 10.197 18.0453C9.75194 18.3033 9.24865 18.4441 8.7343 18.4545C8.21995 18.4649 7.71138 18.3446 7.25623 18.1048C7.81067 18.8718 8.71024 19.3963 9.72653 19.3963Z" fill="#25F4EE"/>
<path d="M20.3819 6.87224V6.04148C19.4068 6.04239 18.4526 5.75867 17.6364 5.22513C18.3403 6.03356 19.2964 6.64059 20.3819 6.87224Z" fill="#25F4EE"/>
<path d="M17.6364 5.22513C16.8363 4.30979 16.3957 3.13512 16.3964 1.91938H15.4258C15.5514 2.59132 15.8121 3.23078 16.192 3.799C16.572 4.36723 17.0634 4.85241 17.6364 5.22513Z" fill="#FE2C55"/>
<path d="M8.67022 12.3622C7.98882 12.3615 7.32688 12.5894 6.79032 13.0094C6.25376 13.4294 5.8736 14.0172 5.71068 14.6789C5.54776 15.3405 5.61151 16.0377 5.89171 16.6588C6.17191 17.2799 6.65237 17.7891 7.2562 18.1048C6.87944 17.5881 6.67546 16.9656 6.67336 16.3261C6.67127 15.6866 6.87116 15.0628 7.24453 14.5436C7.61789 14.0245 8.14566 13.6364 8.75257 13.4349C9.35947 13.2334 10.0145 13.2287 10.6243 13.4214V9.72298C10.3265 9.68099 10.0262 9.6592 9.72542 9.65777C9.67246 9.65777 9.62058 9.66065 9.56799 9.66173V12.5031C9.27764 12.4107 8.9749 12.3632 8.67022 12.3622Z" fill="#FE2C55"/>
<path d="M20.3819 6.84882V9.66533C18.5722 9.66776 16.8076 9.10057 15.3383 8.04416V15.4104C15.3383 19.0883 12.3463 22.0803 8.66842 22.0803C7.30001 22.0813 5.96475 21.6592 4.8457 20.8716C5.46861 21.5431 6.22349 22.0788 7.06305 22.445C7.9026 22.8113 8.80874 23.0002 9.72471 23C13.4026 23 16.3946 20.0077 16.3946 16.3298V8.96355C17.8634 10.0197 19.6273 10.5869 21.4364 10.5847V6.96122C21.0819 6.96103 20.7285 6.92335 20.3819 6.84882Z" fill="#FE2C55"/>
<path d="M15.34 15.4104V8.04416C16.8094 9.10058 18.574 9.66776 20.3837 9.66534V6.84882C19.317 6.61885 18.3536 6.04912 17.6381 5.22513C17.0651 4.85241 16.5738 4.36723 16.1938 3.799C15.8138 3.23078 15.5531 2.59132 15.4276 1.91938H12.7725L12.7681 16.4425C12.7461 17.0772 12.5259 17.6891 12.1384 18.1923C11.7509 18.6954 11.2156 19.0646 10.6075 19.2479C9.99951 19.4313 9.34932 19.4196 8.74825 19.2146C8.14718 19.0096 7.62541 18.6215 7.25617 18.1048C6.65242 17.7891 6.17201 17.28 5.89179 16.659C5.61157 16.038 5.54775 15.341 5.71053 14.6794C5.8733 14.0178 6.25328 13.43 6.78965 13.0099C7.32603 12.5898 7.98781 12.3618 8.66911 12.3622C8.97415 12.3631 9.27727 12.4106 9.56796 12.5031V9.66173C5.96284 9.74603 3.05518 12.703 3.05518 16.3265C3.05438 18.0129 3.6947 19.6365 4.84639 20.8683C5.96544 21.6559 7.3007 22.0781 8.66911 22.077C12.3481 22.0785 15.34 19.0851 15.34 15.4104Z" fill="black"/>
</svg>
