<svg width="24" height="24" viewBox="0 0 24 24" fill="none" xmlns="http://www.w3.org/2000/svg">
<path fill-rule="evenodd" clip-rule="evenodd" d="M19.8506 7.25242C19.8592 7.43698 19.8632 7.62272 19.8632 7.80833C19.8655 12.2883 17.4226 16.4124 13.4927 18.5632C9.56271 20.714 4.77225 20.5487 1 18.1319C1.34109 18.1722 1.68426 18.1923 2.02772 18.1923C3.96791 18.1951 5.8527 17.5454 7.3791 16.3478C5.53564 16.3128 3.91822 15.11 3.3541 13.3547C3.62094 13.407 3.89221 13.4333 4.16412 13.4333C4.54778 13.4332 4.92973 13.3822 5.29998 13.2816C3.28936 12.8754 1.84354 11.1085 1.84315 9.05725L1.8442 9.00242C2.44199 9.33583 3.11116 9.52065 3.79533 9.5413C1.90127 8.27736 1.31714 5.75814 2.46172 3.78963C4.64974 6.48135 7.87766 8.11758 11.3421 8.2911C10.8988 6.39142 11.7863 4.43075 13.5062 3.51028C15.2262 2.5898 17.3498 2.93891 18.6846 4.36153C19.6492 4.17109 20.5744 3.81741 21.4201 3.31573C21.0988 4.3138 20.4256 5.16103 19.526 5.69958C20.3797 5.59774 21.2136 5.36929 22 5.02175C21.4215 5.88688 20.6937 6.6422 19.8506 7.25242Z" fill="#1D9BF0"/>
</svg>
