<svg width="24" height="24" viewBox="0 0 24 24" fill="none" xmlns="http://www.w3.org/2000/svg">
<g clip-path="url(#clip0_96_5648)">
<path d="M9.12432 8.13737L5.98199 15.6268H3.93193L2.38564 9.64937C2.29177 9.2812 2.21064 9.14645 1.92476 8.99134C1.45862 8.73857 0.68885 8.50167 0.012207 8.35443L0.0575832 8.13737H3.35767C3.77831 8.13737 4.15644 8.41724 4.25194 8.90118L5.06859 13.2347L7.08677 8.13737H9.12432ZM17.1569 13.1819C17.1652 11.2052 14.4208 11.0963 14.4397 10.2132C14.4456 9.94447 14.7022 9.65873 15.2624 9.58567C15.5402 9.54933 16.3059 9.52161 17.1749 9.92087L17.5155 8.3327C17.048 8.16235 16.4476 8 15.7006 8C13.7837 8 12.4347 9.01807 12.4233 10.4759C12.4108 11.5541 13.3858 12.1558 14.1208 12.5141C14.8767 12.881 15.1304 13.1168 15.1275 13.445C15.1221 13.9476 14.5247 14.1694 13.9662 14.178C12.9912 14.193 12.4259 13.9145 11.9749 13.705L11.6234 15.3459C12.0765 15.5536 12.9129 15.7348 13.7802 15.7438C15.8177 15.7438 17.1504 14.7385 17.1567 13.1813L17.1569 13.1819ZM22.2185 15.6268H24.0122L22.4465 8.13737H20.791C20.6142 8.13589 20.4411 8.18747 20.294 8.28544C20.1469 8.38342 20.0326 8.52327 19.966 8.68687L17.0554 15.6268H19.0918L19.4962 14.5079H21.9838L22.2185 15.6268ZM20.0546 12.9728L21.0754 10.1605L21.6629 12.9727L20.0546 12.9728ZM11.8951 8.13737L10.2915 15.6268H8.35217L9.95647 8.13737H11.8951Z" fill="#1434CB"/>
</g>
<defs>
<clipPath id="clip0_96_5648">
<rect width="24" height="24" fill="white"/>
</clipPath>
</defs>
</svg>
