<svg width="24" height="24" viewBox="0 0 24 24" fill="none" xmlns="http://www.w3.org/2000/svg">
<path fill-rule="evenodd" clip-rule="evenodd" d="M16.8109 14.1449C16.5497 14.0141 15.2652 13.3821 15.0257 13.2949C14.7863 13.2077 14.6121 13.1642 14.4379 13.4256C14.2637 13.6871 13.763 14.2757 13.6106 14.45C13.4583 14.6244 13.3058 14.6463 13.0446 14.5154C12.7833 14.3847 11.9415 14.1088 10.9436 13.2187C10.1669 12.5259 9.64256 11.6704 9.4902 11.4088C9.33779 11.1472 9.47391 11.0059 9.60471 10.8756C9.72228 10.7585 9.86602 10.5704 9.99662 10.4179C10.1273 10.2654 10.1708 10.1563 10.2579 9.98203C10.345 9.80761 10.3014 9.6551 10.2361 9.52434C10.1708 9.39359 9.64828 8.10755 9.43059 7.58439C9.21851 7.07501 9.00313 7.14399 8.84275 7.13592C8.69053 7.12835 8.51616 7.12675 8.34204 7.12675C8.16787 7.12675 7.8848 7.19212 7.6453 7.45363C7.40585 7.71519 6.73092 8.3473 6.73092 9.63319C6.73092 10.9192 7.66706 12.1615 7.79771 12.3359C7.92837 12.5103 9.63996 15.1491 12.2609 16.2808C12.8841 16.55 13.3708 16.7108 13.7502 16.8311C14.3761 17.03 14.9456 17.002 15.3958 16.9347C15.8978 16.8597 16.9415 16.3027 17.1593 15.6925C17.377 15.0821 17.377 14.559 17.3116 14.45C17.2464 14.341 17.0722 14.2757 16.8109 14.1449ZM12.0439 20.6537H12.0404C10.4809 20.6531 8.95139 20.2342 7.61708 19.4424L7.29972 19.254L4.0105 20.1168L4.88843 16.9099L4.68182 16.581C3.81186 15.1974 3.35237 13.5981 3.35307 11.956C3.35498 7.16435 7.25364 3.26599 12.0474 3.26599C14.3687 3.26679 16.5507 4.17194 18.1916 5.81469C19.8324 7.45734 20.7355 9.64086 20.7346 11.963C20.7326 16.755 16.834 20.6537 12.0439 20.6537ZM19.4404 4.56646C17.4663 2.59005 14.8409 1.50115 12.0438 1.5C6.28055 1.5 1.58994 6.19031 1.58764 11.9553C1.58689 13.7982 2.06834 15.5969 2.98337 17.1827L1.5 22.6009L7.04292 21.1469C8.57016 21.9799 10.2897 22.419 12.0397 22.4196H12.0439C17.8066 22.4196 22.4976 17.7288 22.5 11.9637C22.5011 9.16983 21.4145 6.54282 19.4404 4.56646Z" fill="#363639"/>
</svg>
