<svg width="24" height="24" viewBox="0 0 24 24" fill="none" xmlns="http://www.w3.org/2000/svg">
<g clip-path="url(#clip0_2_31)">
<path fill-rule="evenodd" clip-rule="evenodd" d="M12.4211 3.4511C14.0293 3.45993 19.7725 3.52174 21.3768 3.95445C22.4095 4.23223 23.2226 5.05084 23.4986 6.09008C24.0002 7.97399 24.0002 11.9043 24.0002 11.9043L24.0002 11.9202C23.9995 12.1927 23.9816 15.9046 23.4986 17.7187C23.2226 18.758 22.4095 19.5764 21.3768 19.8544C19.719 20.3014 13.6418 20.3525 12.2744 20.3583H11.7255C10.3581 20.3525 4.28084 20.3014 2.62299 19.8544C1.59043 19.5764 0.777137 18.758 0.501131 17.7187C0.0739967 16.1139 0.0107175 13.024 0.00134277 12.1437V11.665C0.0107175 10.7847 0.0739967 7.69489 0.501131 6.09008C0.777137 5.05084 1.59043 4.23223 2.62299 3.95445C4.22736 3.52174 9.97057 3.45993 11.5788 3.4511H12.4211ZM9.54535 8.3359V15.4729L15.8182 11.9045L9.54535 8.3359Z" fill="#363639"/>
</g>
<defs>
<clipPath id="clip0_2_31">
<rect width="24" height="24" fill="white"/>
</clipPath>
</defs>
</svg>
